<svg xmlns="http://www.w3.org/2000/svg" viewBox="0 0 1024 512"><defs><style>.a{fill:#fff;}</style></defs><title>logo-white</title><path class="a" d="M262.6,262.77q15-1.81,21.77-4.57,12.08-4.75,14.27-14.82,2.57-12.25-4.94-16.93t-24-4.66q-18.48,0-28.18,9.15-6.77,6.76-11.16,18.29H180.08q7.32-26.16,23.78-43,26.35-26.36,76.67-26.35,32.75,0,55.44,13t15,49L331.39,333.4q-2,9.51-4.39,23.05-1.65,10.24.09,13.91a13.54,13.54,0,0,0,6.31,6l-1.46,7.68H275.22a52.77,52.77,0,0,1-.91-11.34q.18-5.31,1.09-12.08a147.94,147.94,0,0,1-29.09,19.94,87.4,87.4,0,0,1-40.25,9.7q-27.08,0-41.44-15.46T156.29,331q7.88-36.78,39.71-53.24,17.37-9,48.48-12.81Zm26.53,24.34a67.8,67.8,0,0,1-11,5,99.32,99.32,0,0,1-14.64,3.57l-12.07,2.19q-17.2,2.94-25.25,7.14a31,31,0,0,0-16.65,22.14q-2.94,13.35,3.2,19.3t16.74,5.95q16.83,0,33.12-9.88t22.5-36.05ZM729.4,428.52l6.58.36a83.5,83.5,0,0,0,14.64-.55,32.15,32.15,0,0,0,12.63-4.21q5.29-3.11,11.34-13c4-6.58,9.86-16.8,9.61-18.27L755.3,184.65h58l12.26,147.1L898,184.65h55.44L843.3,380.79c-21.22,37.81-40.57,67.46-50.14,76.54S767.27,471,744.22,471q-7,0-11.16-.09t-12.45-.64ZM532,348H482.06l48.69-229.23H487.39q-.74,3.48-4.39,10.61a58.32,58.32,0,0,1-14.28,19,62.6,62.6,0,0,1-28.54,13.9q-10.24,2.2-35.31,3.3l-7.5,35.49h62.39L428.62,348H379.35l-7.88,36.05H421v0H474.4v0h49.71Zm181.93-.08H664l48.69-229.71H669.32q-.74,3.5-4.39,10.64a58.62,58.62,0,0,1-14.27,19.07,62.68,62.68,0,0,1-28.55,13.93q-10.25,2.2-35.31,3.3l-7.5,35.57h62.39l-31.14,147.2H561.28l-7.88,36.13h49.51v0h53.43v0H706Z"/><path class="a" d="M947.12,83.28l19.71-36.05H133.49a32.28,32.28,0,0,0-31.58,25.63L26.49,431.32a32.28,32.28,0,0,0,31.59,38.92H665.49l7.88-36.05H63.06L136.89,83.28Z"/></svg>